<?xml version="1.0" standalone="no"?>
<!DOCTYPE svg PUBLIC "-//W3C//DTD SVG 20010904//EN"
 "http://www.w3.org/TR/2001/REC-SVG-20010904/DTD/svg10.dtd">
<svg version="1.0" xmlns="http://www.w3.org/2000/svg"
 width="468pt" height="137pt" viewBox="0 0 468 137"
 preserveAspectRatio="xMidYMid meet">
<metadata>
Created by POTRACE VERSION, written by Peter Selinger 2001-2007
</metadata>
<g transform="translate(0,137) scale(0.012365,-0.012365)"
fill="#000000" stroke="none">
<path d="M3555 11026 c-33 -7 -74 -17 -91 -23 -17 -6 -42 -9 -55 -6 -19 3 -28
-1 -36 -20 -9 -19 -22 -26 -58 -31 -28 -5 -58 -18 -78 -35 -18 -15 -45 -33
-62 -38 -16 -6 -59 -29 -95 -52 -36 -22 -87 -52 -115 -65 -27 -13 -55 -33 -62
-44 -7 -11 -39 -35 -73 -53 -37 -19 -68 -45 -81 -65 -14 -23 -33 -37 -61 -46
-31 -9 -44 -20 -55 -46 -7 -18 -29 -42 -47 -53 -19 -11 -37 -31 -40 -45 -5
-17 -15 -26 -36 -31 -18 -3 -42 -20 -59 -42 -16 -20 -40 -43 -54 -50 -14 -7
-48 -46 -76 -86 -28 -40 -65 -85 -82 -99 -17 -14 -36 -26 -44 -26 -7 0 -18
-13 -25 -30 -7 -16 -23 -36 -36 -45 -16 -10 -26 -29 -31 -57 -5 -32 -16 -51
-49 -81 -30 -27 -44 -49 -46 -70 -3 -26 -9 -32 -43 -41 -35 -10 -40 -16 -47
-51 -5 -22 -18 -48 -31 -58 -12 -11 -27 -33 -33 -50 -7 -21 -23 -38 -47 -50
-20 -10 -37 -25 -37 -32 0 -8 -10 -31 -22 -52 -12 -21 -34 -53 -50 -71 -19
-23 -28 -44 -28 -68 0 -28 -5 -37 -21 -41 -13 -4 -30 -26 -45 -59 -13 -29 -24
-57 -24 -62 0 -5 -13 -27 -29 -49 -15 -21 -38 -59 -50 -84 -12 -24 -36 -66
-55 -92 -19 -27 -43 -59 -55 -71 -12 -13 -31 -47 -42 -77 -12 -30 -31 -88 -43
-129 -12 -41 -29 -85 -37 -97 -7 -13 -17 -23 -21 -23 -4 0 -12 -19 -19 -42 -6
-24 -21 -56 -33 -73 -13 -16 -33 -50 -46 -74 -12 -24 -39 -96 -60 -160 -21
-64 -46 -133 -54 -153 -9 -20 -20 -39 -25 -42 -5 -3 -19 -38 -31 -78 -12 -40
-31 -91 -41 -114 -11 -23 -19 -44 -19 -49 0 -4 -9 -18 -20 -32 -11 -14 -20
-32 -20 -40 0 -7 -18 -46 -41 -85 -27 -48 -47 -102 -61 -163 -11 -49 -29 -103
-39 -118 -11 -15 -27 -46 -35 -69 -8 -23 -20 -49 -27 -58 -8 -8 -21 -56 -30
-107 -12 -65 -28 -110 -53 -155 -20 -35 -42 -70 -50 -79 -8 -9 -23 -59 -34
-111 -10 -53 -27 -113 -36 -134 -9 -22 -25 -58 -35 -82 -11 -23 -19 -51 -19
-62 0 -10 -11 -36 -25 -56 -14 -20 -25 -51 -25 -69 0 -18 -6 -50 -13 -71 -8
-22 -26 -97 -41 -169 -16 -71 -35 -157 -43 -190 -9 -33 -18 -73 -21 -90 -3
-16 -14 -42 -25 -57 -14 -20 -22 -51 -27 -105 -4 -43 -19 -118 -33 -167 -15
-48 -27 -112 -27 -140 0 -28 -6 -76 -14 -106 -7 -30 -19 -98 -26 -150 -7 -52
-19 -112 -27 -134 -7 -21 -13 -73 -13 -115 0 -42 -5 -93 -10 -113 -6 -20 -15
-78 -21 -130 -6 -51 -14 -131 -19 -178 -5 -47 -9 -222 -9 -390 0 -168 5 -322
10 -343 5 -20 12 -92 14 -160 2 -67 11 -167 20 -222 8 -55 15 -119 15 -143 0
-23 14 -100 31 -170 17 -70 35 -131 40 -137 5 -5 9 -32 9 -60 0 -39 8 -67 36
-120 20 -39 45 -95 56 -125 10 -30 25 -79 32 -108 8 -30 19 -59 25 -65 6 -6
11 -18 11 -27 0 -9 8 -25 19 -34 10 -9 22 -31 25 -49 3 -18 15 -50 26 -72 10
-22 21 -47 25 -55 3 -8 16 -35 30 -59 14 -24 25 -50 25 -57 0 -7 10 -25 23
-41 12 -15 28 -37 34 -48 7 -11 24 -40 37 -65 13 -25 33 -54 45 -64 12 -11 21
-24 21 -31 0 -7 9 -20 20 -30 11 -10 20 -23 20 -30 0 -7 9 -20 20 -30 11 -10
20 -24 20 -31 0 -7 6 -17 14 -21 8 -4 24 -27 36 -51 12 -23 31 -47 42 -53 11
-6 33 -23 49 -37 16 -14 29 -31 29 -37 0 -7 19 -29 43 -49 23 -20 54 -46 69
-59 15 -12 27 -28 27 -34 1 -7 29 -42 63 -78 34 -36 67 -65 72 -65 4 0 29 -20
55 -45 25 -25 72 -70 104 -100 37 -36 75 -61 105 -71 26 -9 63 -31 82 -48 19
-18 53 -43 75 -56 22 -13 50 -34 63 -47 13 -12 30 -23 39 -23 8 0 46 -21 84
-46 38 -25 71 -49 74 -54 3 -4 38 -18 77 -30 53 -16 84 -32 113 -60 28 -26 56
-41 93 -50 28 -7 52 -16 52 -21 0 -5 12 -12 28 -15 15 -4 44 -15 65 -26 21
-10 63 -23 93 -29 30 -6 71 -21 91 -35 20 -13 47 -24 61 -24 14 0 30 -6 36
-14 6 -8 33 -26 60 -40 37 -20 64 -26 109 -26 48 0 65 -4 84 -22 19 -18 36
-21 100 -23 43 0 98 -7 123 -15 25 -7 51 -18 58 -24 7 -5 43 -10 80 -11 37 -2
83 -6 102 -10 19 -4 45 -17 58 -28 19 -17 37 -22 90 -23 41 -1 83 -9 107 -20
23 -10 67 -19 105 -20 36 -1 107 -7 159 -14 75 -10 102 -10 132 0 34 11 44 10
89 -9 42 -18 62 -21 105 -16 44 6 60 4 87 -13 18 -11 56 -24 83 -30 28 -6 97
-14 155 -17 76 -4 123 -2 170 9 36 8 137 18 225 22 104 4 165 11 175 19 8 7
31 15 50 18 19 2 50 -2 69 -9 18 -8 63 -14 99 -14 47 0 71 5 84 17 15 13 23
14 44 5 13 -7 42 -12 62 -12 20 0 52 9 70 20 17 11 32 26 32 35 0 8 -14 22
-31 31 -26 13 -52 15 -163 9 -72 -4 -153 -13 -179 -21 -43 -12 -53 -12 -78 2
-22 11 -77 17 -198 21 -162 6 -169 5 -186 -15 l-18 -21 -19 24 c-10 13 -33 29
-52 35 -20 6 -78 9 -144 6 -83 -3 -114 -1 -122 9 -6 7 -27 16 -48 20 -20 4
-48 13 -62 20 -14 7 -52 16 -85 19 -33 4 -82 14 -110 22 -27 8 -83 18 -123 23
-40 5 -90 19 -112 30 -23 12 -52 21 -66 21 -14 0 -46 9 -72 19 -26 10 -74 24
-107 31 -33 7 -71 18 -85 26 -14 7 -61 26 -105 42 -44 17 -102 33 -130 37 -28
4 -64 18 -83 32 -18 13 -54 31 -80 40 -26 8 -83 28 -127 45 -44 17 -121 50
-170 73 -50 24 -133 60 -185 80 -52 20 -99 41 -105 45 -5 4 -38 22 -72 40 -35
17 -63 36 -63 41 0 6 -26 22 -57 35 -32 14 -61 32 -66 39 -4 7 -44 34 -90 59
-48 26 -90 57 -102 75 -10 16 -30 34 -42 40 -13 6 -76 55 -141 110 -65 55
-136 118 -158 141 -21 23 -49 46 -61 51 -13 4 -23 17 -23 28 0 10 -12 27 -27
36 -16 10 -38 29 -51 44 -12 14 -34 43 -47 63 -13 20 -33 39 -44 43 -12 3 -36
34 -56 69 -19 34 -57 84 -85 110 -27 26 -50 52 -50 57 0 5 -18 34 -40 64 -22
29 -44 56 -49 59 -5 3 -18 24 -30 46 -12 22 -21 45 -21 51 0 6 -11 24 -25 41
-14 16 -25 36 -25 43 0 8 -13 29 -28 47 -15 18 -43 65 -61 103 -19 39 -40 82
-47 97 -8 14 -14 44 -14 66 0 23 -4 44 -10 47 -5 3 -21 30 -34 58 -13 29 -36
82 -51 119 -14 37 -30 91 -35 122 -5 30 -20 78 -33 108 -13 29 -29 76 -35 103
-5 28 -17 70 -25 95 -8 25 -20 72 -27 105 -6 33 -15 92 -20 130 -4 39 -15 87
-24 107 -10 23 -15 60 -14 95 1 32 -4 90 -11 128 -8 39 -14 142 -15 230 -1 88
-7 176 -14 195 -6 19 -11 76 -12 125 0 50 2 153 3 230 2 77 7 176 11 220 5 51
4 90 -3 108 -8 21 -8 34 1 50 6 12 18 67 25 122 8 55 14 153 13 218 -1 103 2
122 20 152 14 23 20 48 19 82 0 26 2 71 5 98 4 28 13 73 21 100 8 28 19 79 24
115 6 36 22 101 36 145 18 56 24 91 20 120 -4 25 0 56 9 84 9 24 16 61 16 83
0 21 9 57 20 79 12 22 26 77 32 122 5 45 19 108 30 139 11 32 29 67 39 79 11
12 19 35 19 50 0 15 4 30 9 33 5 4 12 30 16 59 4 28 13 75 20 102 8 28 19 68
25 90 6 22 20 58 30 80 10 22 28 72 40 110 12 39 35 97 50 130 15 33 33 83 39
110 7 28 25 77 41 110 15 33 31 83 33 111 3 28 13 68 22 90 9 21 26 57 36 79
10 22 19 44 19 48 0 5 11 32 24 60 13 29 44 104 69 167 25 63 48 126 52 140 4
14 15 44 26 68 11 24 24 66 29 94 6 27 13 55 17 61 4 7 23 35 43 62 20 28 42
70 49 95 7 25 26 68 41 95 16 28 33 70 40 95 6 25 18 54 25 65 7 12 32 70 56
130 23 61 48 117 55 125 7 8 22 41 34 72 11 31 29 67 39 80 10 13 22 34 26 48
4 14 14 32 21 41 8 9 32 56 54 105 25 56 51 99 73 119 19 16 41 50 50 75 8 25
19 61 22 80 4 19 12 41 17 48 6 6 23 12 39 12 25 0 28 4 38 53 6 28 12 65 13
81 2 22 13 35 39 50 20 12 59 41 88 66 29 24 72 71 95 105 24 33 67 84 95 114
28 29 51 57 51 62 0 5 27 36 60 69 33 33 65 60 71 60 7 0 38 27 70 60 48 50
67 62 119 77 51 14 68 24 97 59 19 24 44 47 56 51 12 4 49 14 82 23 45 12 61
21 63 35 2 11 11 26 20 33 9 6 28 12 44 12 18 0 39 12 66 39 27 28 51 41 78
46 21 3 57 9 79 14 22 5 58 16 81 24 31 12 59 14 116 8 60 -5 84 -13 118 -36
23 -16 50 -40 61 -53 10 -14 19 -32 19 -41 0 -9 6 -25 13 -36 8 -11 24 -49 35
-84 13 -39 22 -90 22 -127 0 -34 3 -76 6 -93 6 -28 10 -31 45 -31 33 0 41 4
49 24 5 14 12 69 15 123 5 68 3 107 -5 128 -7 17 -12 48 -11 70 1 31 -8 55
-41 109 -34 54 -59 80 -113 117 l-70 49 -100 4 c-60 3 -124 0 -160 -8z"/>
<path d="M23065 9579 c-38 -13 -70 -32 -88 -52 -15 -18 -40 -52 -54 -77 -14
-25 -40 -62 -57 -82 -17 -20 -42 -52 -56 -70 -14 -17 -37 -58 -52 -89 -15 -32
-32 -60 -38 -64 -5 -3 -10 -14 -10 -24 0 -10 -9 -26 -19 -35 -10 -9 -22 -37
-26 -61 -3 -25 -10 -47 -15 -50 -5 -3 -23 -34 -41 -68 -17 -34 -34 -64 -38
-67 -4 -3 -20 -31 -34 -62 -15 -31 -27 -62 -27 -69 0 -7 -12 -27 -26 -46 -14
-19 -30 -51 -36 -71 -5 -20 -20 -48 -32 -62 -13 -14 -36 -50 -53 -80 -16 -30
-38 -77 -49 -105 -10 -27 -24 -61 -31 -75 -7 -14 -13 -33 -13 -43 0 -10 -17
-50 -37 -90 -20 -40 -45 -81 -56 -92 -10 -11 -33 -43 -51 -70 -18 -28 -37 -62
-41 -75 -4 -14 -18 -36 -30 -50 -13 -14 -33 -47 -44 -74 -12 -26 -31 -60 -42
-75 -11 -14 -27 -41 -34 -58 -8 -18 -18 -33 -23 -33 -5 0 -14 -11 -20 -25 -7
-14 -12 -38 -12 -54 0 -15 -6 -36 -14 -46 -13 -18 -15 -18 -44 6 -17 13 -47
35 -68 49 -20 14 -46 34 -58 45 -12 11 -40 32 -62 48 -24 16 -54 27 -75 27
-18 0 -42 7 -53 15 -10 7 -42 17 -72 21 -29 3 -59 13 -65 21 -7 8 -25 21 -40
29 -16 8 -48 14 -72 14 -31 0 -53 7 -73 22 -26 21 -39 23 -194 25 l-166 2 -58
-44 c-33 -24 -72 -49 -88 -56 -15 -6 -28 -16 -28 -21 0 -5 -15 -28 -33 -51
-19 -23 -45 -64 -59 -92 -15 -27 -35 -68 -46 -90 -11 -22 -28 -67 -39 -100
-15 -49 -18 -89 -16 -222 1 -156 3 -168 41 -305 22 -79 48 -176 57 -216 12
-50 26 -83 46 -105 16 -17 45 -64 66 -104 33 -64 45 -78 90 -104 34 -20 55
-39 59 -55 3 -13 23 -37 43 -53 20 -15 41 -30 46 -32 6 -2 26 -14 45 -26 27
-17 39 -34 49 -69 14 -46 13 -49 -14 -98 -16 -28 -33 -55 -37 -61 -5 -5 -35
-44 -68 -85 -33 -41 -63 -86 -67 -99 -3 -14 -21 -45 -40 -70 -19 -26 -55 -72
-81 -104 -31 -39 -52 -57 -65 -55 -14 2 -34 35 -68 110 -27 58 -60 124 -75
145 -14 21 -35 43 -47 50 -12 7 -41 12 -63 13 -27 0 -50 -7 -67 -20 -14 -11
-32 -20 -41 -20 -8 0 -23 -12 -32 -26 -10 -14 -24 -38 -33 -54 -9 -15 -28 -51
-43 -79 -16 -28 -35 -85 -44 -128 -8 -43 -22 -104 -30 -135 -8 -32 -14 -77
-14 -100 0 -24 6 -54 13 -68 8 -15 16 -43 20 -63 3 -20 22 -73 43 -116 25 -54
44 -81 58 -85 12 -3 40 -6 63 -6 23 0 45 -4 48 -10 3 -5 24 -10 47 -10 33 0
46 6 72 33 17 18 43 41 58 50 15 9 34 17 41 17 8 0 35 -12 61 -26 25 -14 51
-35 57 -46 9 -18 17 -19 52 -13 23 5 76 7 117 7 41 -1 123 2 182 6 l107 9 48
51 49 52 70 0 70 0 60 63 c34 34 64 70 67 80 4 9 17 21 30 26 13 5 34 24 45
43 12 18 37 53 56 78 19 24 53 53 76 65 36 17 45 28 61 74 13 37 34 69 68 102
28 27 55 49 60 49 6 0 17 14 26 30 12 23 22 30 44 30 15 0 36 9 46 20 10 11
25 20 33 20 9 0 26 10 39 22 24 22 24 22 59 3 30 -16 41 -17 82 -7 26 6 70 14
97 17 28 4 55 10 60 15 6 4 28 11 49 14 23 5 51 20 68 36 l29 30 55 -37 c45
-30 65 -37 106 -37 l50 0 -7 -30 c-3 -17 -9 -65 -12 -107 l-5 -76 38 -38 c35
-35 40 -37 85 -32 44 5 48 4 51 -16 2 -13 16 -28 33 -36 16 -8 51 -16 76 -19
36 -3 60 2 104 22 32 14 63 26 69 26 6 0 34 15 61 33 28 19 62 37 78 41 15 4
37 21 50 41 12 20 31 38 43 41 11 3 59 5 105 5 46 -1 127 -2 179 -3 66 -1 103
2 120 12 14 8 57 15 95 17 39 2 96 3 127 3 41 -1 86 10 160 36 57 19 131 44
164 55 34 11 77 29 95 42 19 12 69 39 113 60 62 29 90 37 136 37 l58 0 26 45
c18 31 35 47 54 50 15 3 55 13 90 22 50 12 66 21 75 40 10 23 14 25 57 17 25
-4 74 -6 110 -5 35 1 92 11 125 23 33 11 68 28 78 39 10 10 29 22 42 25 14 3
37 3 51 0 15 -4 57 2 101 15 56 15 90 19 132 15 31 -4 79 -7 107 -9 42 -2 60
-9 99 -39 27 -21 52 -38 56 -38 4 0 12 -15 18 -33 6 -18 12 -83 13 -143 0 -60
-5 -163 -11 -229 -7 -66 -15 -145 -17 -175 -5 -51 -4 -57 23 -81 15 -15 43
-31 62 -38 19 -6 45 -11 58 -11 13 0 55 16 93 35 63 32 70 38 70 65 0 20 8 35
25 46 14 9 25 21 25 28 0 6 11 31 23 56 13 25 35 64 50 88 15 23 34 42 42 42
9 0 18 7 21 15 4 8 -1 27 -10 41 -16 23 -16 27 1 61 10 20 27 41 38 47 11 6
43 27 70 48 28 20 85 52 128 72 52 24 83 44 94 63 8 15 30 37 47 48 17 11 32
29 32 40 1 11 2 25 3 32 1 6 9 19 18 28 9 10 24 31 32 49 13 24 23 32 51 34
21 2 44 13 58 28 17 17 33 24 62 24 22 0 63 9 92 21 29 11 67 33 83 48 17 16
40 34 53 40 13 7 67 28 120 47 53 19 111 45 127 57 24 17 45 22 102 23 39 1
91 9 115 17 23 9 69 23 101 33 48 14 65 15 90 6 18 -6 97 -14 177 -18 90 -4
155 -12 172 -20 15 -8 45 -14 67 -14 22 0 50 -4 63 -9 20 -7 26 -21 37 -74 10
-53 10 -69 0 -89 -8 -15 -13 -63 -12 -141 0 -114 1 -119 27 -146 14 -15 26
-32 26 -39 0 -6 11 -22 24 -36 13 -15 27 -26 31 -26 4 0 23 -13 42 -30 23 -21
44 -30 67 -30 19 0 39 7 46 15 7 8 22 15 34 15 12 0 29 -9 39 -20 12 -15 29
-20 65 -20 27 0 57 7 70 16 13 8 51 24 86 34 34 10 86 21 115 25 42 6 55 12
63 31 9 18 19 24 43 24 18 0 49 7 68 15 20 8 45 15 56 15 12 0 28 -16 44 -43
14 -23 35 -51 47 -62 12 -11 43 -26 68 -33 26 -8 66 -16 90 -19 32 -4 48 -1
62 12 13 12 28 16 47 12 15 -3 41 -9 57 -13 15 -4 53 -1 85 5 31 7 67 19 81
26 14 8 53 30 87 50 33 19 67 43 75 52 7 9 31 24 52 34 35 15 44 16 85 3 32
-9 58 -10 85 -4 21 4 43 13 49 19 6 6 20 11 32 11 11 0 37 5 58 11 26 7 58 30
98 72 33 34 69 78 79 98 10 20 37 56 60 80 22 24 40 47 40 51 0 5 11 13 25 18
13 5 32 24 41 41 12 25 15 48 11 93 -4 45 -1 71 14 108 10 27 19 59 19 72 0
12 -9 58 -20 101 -11 43 -28 87 -37 97 -9 10 -30 18 -47 18 -17 0 -36 -4 -42
-8 -6 -4 -18 -29 -27 -57 -8 -27 -31 -87 -49 -132 -19 -45 -41 -90 -51 -101
-9 -10 -17 -24 -17 -30 0 -6 -13 -37 -30 -69 -16 -32 -60 -90 -97 -128 -37
-39 -93 -92 -123 -119 -30 -27 -75 -58 -100 -69 -25 -11 -56 -28 -69 -38 -13
-11 -33 -19 -45 -19 -11 -1 -36 -9 -54 -18 -27 -15 -43 -16 -95 -9 -34 4 -87
21 -117 37 -40 20 -57 36 -64 56 -4 16 -15 43 -23 60 -8 16 -15 61 -16 97 -1
47 -7 71 -17 78 -8 5 -34 8 -58 6 -27 -3 -53 -13 -67 -27 -20 -19 -32 -22 -67
-17 -42 6 -44 5 -88 -48 -25 -30 -69 -70 -97 -90 -29 -20 -53 -40 -53 -45 0
-5 -33 -28 -72 -51 -40 -23 -86 -50 -101 -61 -22 -15 -48 -20 -117 -21 -89 -2
-90 -2 -122 31 -32 31 -33 35 -36 127 -3 83 -1 99 18 129 16 27 23 58 27 124
3 49 3 100 0 113 -4 15 -29 40 -63 62 -31 21 -73 41 -93 43 -20 3 -58 10 -86
15 -35 8 -96 8 -205 0 -92 -6 -188 -19 -235 -32 -44 -11 -107 -24 -140 -29
-33 -4 -76 -15 -95 -24 -19 -9 -42 -20 -50 -25 -8 -5 -58 -19 -110 -31 -52
-12 -121 -27 -152 -35 -31 -7 -67 -20 -79 -29 -14 -9 -44 -16 -73 -16 -37 0
-59 -7 -87 -26 -21 -14 -54 -30 -73 -35 -20 -5 -52 -13 -72 -18 -19 -5 -76
-29 -127 -54 -51 -25 -102 -48 -115 -52 -12 -3 -27 -15 -32 -26 -6 -10 -19
-19 -29 -19 -10 0 -35 -13 -55 -29 -21 -17 -59 -37 -85 -46 -27 -8 -58 -27
-71 -40 -13 -13 -47 -31 -76 -40 -29 -8 -54 -19 -56 -24 -2 -5 -27 -26 -57
-46 -30 -20 -64 -35 -75 -33 -17 2 -22 11 -24 46 -3 37 -11 50 -66 105 -34 34
-78 69 -97 79 -19 9 -70 28 -114 42 -46 14 -118 28 -170 32 -84 6 -95 4 -160
-23 -38 -16 -82 -36 -97 -46 -14 -10 -67 -27 -117 -37 -52 -10 -115 -32 -150
-50 -33 -18 -77 -33 -98 -34 -22 -2 -54 -14 -77 -29 -22 -15 -53 -27 -70 -27
-19 0 -52 -14 -85 -35 -34 -22 -65 -35 -86 -35 -21 0 -44 -9 -63 -25 -17 -14
-38 -25 -49 -25 -10 0 -46 -9 -78 -21 -33 -11 -64 -25 -69 -30 -6 -5 -24 -9
-41 -9 -17 0 -78 -16 -136 -35 -57 -19 -129 -38 -159 -41 -30 -3 -93 -19 -140
-34 -47 -16 -132 -36 -190 -45 -58 -9 -117 -20 -132 -25 -17 -5 -52 -3 -95 6
-37 7 -80 19 -95 25 -15 6 -30 19 -33 30 -3 10 -1 27 5 39 6 11 17 20 24 20 7
0 23 11 35 24 13 13 38 27 57 31 26 4 43 18 73 58 21 29 48 74 60 101 11 27
21 57 21 68 0 10 -7 32 -15 47 -8 16 -30 36 -49 45 -19 9 -48 16 -64 16 -20 0
-42 -10 -63 -30 -18 -16 -44 -32 -58 -35 -14 -3 -44 -20 -66 -38 -22 -17 -76
-67 -120 -109 -44 -42 -101 -96 -126 -120 -26 -24 -49 -53 -53 -65 -4 -11 -22
-40 -40 -63 -19 -24 -56 -53 -91 -71 -32 -16 -66 -29 -77 -29 -10 0 -29 -11
-41 -24 -12 -13 -31 -26 -42 -29 -11 -4 -26 -3 -33 1 -9 6 -10 23 -5 62 7 44
13 57 33 66 14 7 37 18 53 25 15 7 36 27 46 44 12 21 45 47 94 74 41 22 79 47
85 54 5 6 12 21 14 32 2 14 14 21 40 26 20 3 54 19 75 35 21 16 47 34 58 39
11 6 29 25 40 42 16 26 27 32 53 33 23 0 41 9 60 29 15 16 46 37 69 46 35 14
48 28 73 73 16 30 30 63 30 72 0 9 -14 29 -31 46 -17 16 -38 44 -47 63 -11 22
-35 44 -67 62 -27 16 -72 40 -100 54 -27 13 -65 25 -83 25 -18 0 -46 -7 -62
-15 -17 -9 -30 -20 -30 -25 0 -5 -30 -30 -67 -55 -38 -25 -82 -56 -99 -68 -18
-13 -62 -47 -98 -76 -36 -29 -66 -57 -66 -61 0 -5 -8 -16 -17 -26 -10 -10 -31
-34 -48 -54 -16 -21 -74 -89 -127 -153 -54 -63 -98 -120 -98 -125 0 -6 -7 -17
-15 -26 -8 -8 -24 -35 -34 -60 -14 -31 -29 -49 -53 -59 -18 -9 -43 -18 -55
-22 -11 -3 -55 -10 -96 -14 -57 -7 -83 -15 -109 -35 -22 -16 -38 -22 -44 -16
-5 5 -43 14 -84 20 -41 7 -104 18 -140 25 -36 8 -101 27 -144 42 -44 16 -81
34 -84 41 -2 7 3 21 11 30 8 9 23 46 32 82 10 36 21 90 25 120 4 31 14 69 23
86 8 16 21 58 28 94 7 36 19 75 26 87 10 15 12 35 8 65 -4 28 -1 58 9 84 10
28 13 62 9 105 -3 36 -14 78 -24 95 -11 17 -19 49 -19 71 0 23 -17 81 -40 139
-22 54 -40 115 -40 135 0 21 13 70 30 110 16 40 35 76 42 80 7 5 16 9 20 9 4
0 12 19 18 43 6 23 15 53 21 67 5 14 25 38 44 53 26 21 37 38 41 68 5 28 19
53 43 79 20 20 45 50 56 66 11 16 35 58 52 93 18 36 33 69 33 74 0 6 11 24 23
41 13 17 27 48 31 68 4 21 13 41 21 45 7 5 23 30 34 57 12 26 30 59 41 73 11
14 20 33 20 43 0 10 9 29 20 43 11 14 23 40 27 59 3 18 12 46 20 62 9 16 28
47 44 69 16 22 34 57 39 77 6 21 31 75 57 121 26 46 55 95 65 108 10 13 18 35
18 50 1 14 10 42 20 61 10 19 25 46 32 60 7 14 22 39 34 55 12 17 25 41 29 55
4 14 18 45 31 70 13 25 24 50 24 56 0 6 9 22 19 36 11 13 31 64 44 114 14 49
33 109 43 134 12 31 15 57 10 83 -7 37 -7 37 -54 37 -26 -1 -74 -10 -107 -21z
m-2139 -1927 c23 -15 53 -35 68 -46 23 -16 33 -17 78 -8 34 6 73 6 117 0 36
-6 85 -19 109 -29 23 -10 53 -19 67 -19 13 0 27 5 30 10 3 6 13 10 20 10 8 0
26 -18 39 -39 14 -22 36 -43 48 -46 13 -4 35 -20 50 -36 16 -18 37 -29 53 -29
17 0 28 -7 34 -22 6 -16 5 -24 -4 -26 -7 -2 -16 -9 -19 -17 -2 -7 2 -16 9 -19
8 -3 21 2 30 10 8 9 23 14 32 12 10 -2 19 -12 21 -23 2 -11 13 -28 23 -38 10
-10 19 -27 19 -39 0 -11 -12 -43 -27 -72 -15 -28 -37 -63 -50 -77 -14 -15 -28
-49 -34 -85 -6 -32 -13 -69 -15 -80 -2 -12 -16 -35 -31 -51 -16 -17 -46 -52
-69 -79 -22 -27 -49 -65 -61 -84 -11 -19 -26 -52 -33 -72 -6 -21 -16 -38 -21
-38 -5 0 -20 -17 -34 -37 -13 -21 -38 -56 -54 -78 -17 -22 -38 -53 -47 -70 -9
-16 -18 -31 -19 -33 -1 -2 -22 3 -45 10 -33 10 -52 26 -83 66 -21 28 -43 52
-48 52 -5 0 -16 15 -25 33 -9 17 -25 38 -35 44 -9 7 -29 34 -43 59 -14 26 -26
54 -26 64 0 9 -11 27 -24 40 -14 12 -28 37 -32 54 -4 17 -17 47 -30 66 -13 19
-24 44 -24 55 0 11 -6 29 -14 40 -7 11 -16 45 -19 75 -3 30 -16 84 -28 120
-20 54 -24 85 -24 185 0 110 2 124 26 170 14 28 32 69 39 90 7 22 18 43 24 47
6 4 18 7 26 7 8 0 34 -13 56 -27z m1084 -720 c0 -8 16 -48 35 -90 25 -52 36
-91 37 -126 1 -28 -6 -80 -16 -116 -9 -36 -21 -95 -25 -131 -6 -45 -17 -79
-35 -105 -14 -21 -26 -48 -26 -59 0 -11 -10 -38 -21 -60 -12 -22 -32 -52 -44
-67 -12 -14 -27 -46 -33 -71 -7 -25 -19 -48 -29 -51 -10 -4 -40 5 -75 24 -32
16 -69 30 -83 30 -13 0 -27 5 -31 11 -3 6 -27 20 -53 31 -25 10 -56 29 -68 40
-13 12 -23 31 -23 43 0 12 17 41 39 64 27 29 40 54 44 82 3 23 15 50 26 60 11
10 25 36 32 58 7 25 32 59 70 96 33 31 62 69 65 83 3 15 17 52 31 82 15 30 36
69 49 85 12 17 25 41 29 55 4 13 19 39 34 57 l25 32 23 -21 c13 -12 23 -28 23
-36z m1591 -409 c14 -3 43 0 63 5 32 9 40 8 57 -9 12 -12 19 -33 19 -60 0 -22
-4 -49 -10 -59 -5 -10 -23 -23 -40 -28 -22 -8 -32 -19 -36 -42 -6 -26 -11 -30
-39 -30 -18 0 -57 -12 -86 -27 -29 -16 -67 -42 -84 -58 -16 -17 -46 -37 -65
-45 -19 -7 -47 -22 -62 -32 -14 -10 -31 -18 -36 -18 -5 0 -13 7 -16 16 -4 9 6
42 20 73 15 31 42 78 60 106 19 27 34 56 34 63 0 8 19 33 43 56 23 24 56 51
72 62 17 10 34 25 38 32 5 8 16 11 25 6 10 -4 29 -9 43 -11z m-2237 -653 c33
-11 71 -20 85 -20 14 0 40 -9 56 -20 17 -11 47 -20 68 -20 29 0 44 -7 62 -27
20 -24 24 -39 25 -94 0 -38 -5 -71 -12 -80 -7 -8 -32 -28 -55 -43 -23 -15 -54
-46 -70 -69 -15 -23 -36 -48 -46 -55 -9 -7 -24 -26 -32 -43 -9 -16 -21 -29
-28 -29 -7 0 -27 -19 -45 -42 -18 -24 -41 -55 -52 -69 -11 -15 -32 -30 -47
-34 -15 -3 -40 -17 -57 -30 -17 -13 -39 -32 -50 -41 -10 -9 -33 -20 -51 -24
-18 -4 -69 -4 -114 0 -50 4 -88 13 -99 22 -9 9 -26 18 -37 22 -11 3 -35 20
-52 36 -18 17 -33 37 -33 45 0 8 9 20 19 27 11 8 23 29 28 48 6 22 21 42 40
55 17 11 34 31 38 44 3 14 25 41 48 62 26 22 57 66 81 113 34 68 44 81 92 107
l54 31 0 51 c0 51 1 52 43 74 23 11 51 21 62 22 11 0 47 -8 79 -19z m-1061
-465 c5 -22 13 -57 18 -77 5 -20 21 -50 34 -66 18 -21 25 -42 25 -71 0 -27 -6
-47 -20 -61 -11 -11 -30 -22 -44 -26 -13 -3 -33 -4 -43 -2 -10 2 -19 14 -21
28 -2 13 -10 33 -18 44 -8 11 -14 29 -14 39 0 10 -7 31 -15 47 -12 23 -13 34
-3 55 9 21 8 32 -5 61 -17 34 -17 35 7 44 13 5 27 14 31 20 4 6 19 10 33 8 23
-2 28 -10 35 -43z"/>
<path d="M34354 8825 c-10 -8 -41 -15 -67 -15 -26 0 -60 -6 -75 -14 -15 -8
-35 -23 -46 -35 -15 -16 -17 -29 -11 -68 3 -26 16 -74 27 -106 15 -40 33 -68
62 -93 22 -19 66 -60 96 -90 30 -30 61 -54 67 -54 7 0 34 -20 59 -45 27 -25
61 -47 78 -50 17 -4 65 -5 106 -3 72 3 75 4 78 28 2 18 -12 46 -46 92 -27 37
-54 79 -59 95 -6 15 -22 64 -36 108 -15 44 -29 98 -33 120 -3 22 -13 51 -22
64 -8 14 -29 37 -46 53 -23 21 -41 28 -71 28 -23 0 -50 -7 -61 -15z"/>
<path d="M6450 8311 c-25 -17 -53 -31 -62 -31 -9 0 -20 -10 -23 -22 -4 -13
-15 -32 -25 -43 -9 -11 -21 -33 -24 -49 -4 -16 -19 -43 -33 -60 -21 -25 -24
-36 -18 -65 4 -20 9 -48 12 -63 3 -15 -4 -51 -15 -80 -11 -29 -27 -75 -37
-103 -9 -27 -23 -81 -30 -120 -8 -38 -19 -95 -25 -125 -7 -30 -20 -84 -31
-120 -11 -36 -19 -80 -19 -97 0 -18 -10 -54 -21 -80 -12 -27 -30 -67 -40 -91
-11 -23 -19 -59 -19 -79 0 -20 -12 -60 -26 -89 -14 -29 -29 -76 -33 -106 -4
-29 -13 -63 -19 -75 -7 -12 -12 -46 -12 -76 0 -43 -8 -69 -41 -133 -22 -43
-47 -90 -55 -104 -7 -14 -14 -41 -14 -61 0 -20 -15 -65 -35 -105 -19 -38 -35
-76 -35 -84 0 -8 -7 -26 -15 -40 -8 -14 -25 -48 -39 -77 -13 -28 -31 -86 -40
-127 -9 -42 -24 -98 -35 -124 -11 -26 -41 -101 -66 -167 -26 -66 -54 -133 -62
-149 -8 -16 -26 -66 -39 -110 -12 -45 -31 -103 -41 -131 -10 -27 -27 -63 -37
-80 -11 -16 -27 -41 -36 -55 -9 -14 -27 -61 -40 -105 -13 -44 -36 -108 -51
-141 -15 -34 -32 -65 -38 -68 -6 -4 -11 -18 -11 -31 0 -13 -4 -26 -9 -30 -5
-3 -12 -18 -16 -34 -3 -16 -15 -37 -26 -47 -10 -9 -19 -24 -19 -33 0 -9 -9
-34 -20 -56 -11 -22 -20 -49 -20 -61 0 -12 -7 -27 -14 -34 -8 -6 -22 -33 -31
-59 -10 -32 -24 -52 -40 -59 -18 -9 -25 -19 -25 -40 0 -16 -10 -42 -21 -56
-14 -18 -24 -49 -28 -89 -4 -34 -12 -72 -19 -84 -7 -12 -12 -40 -12 -62 0 -22
5 -52 10 -66 8 -21 15 -26 32 -21 13 3 29 -1 39 -10 12 -11 27 -14 48 -9 16 3
41 15 55 26 13 11 27 33 31 49 4 17 31 56 61 88 31 31 61 68 69 82 7 14 21 40
31 59 10 19 44 61 77 94 32 33 74 84 93 113 18 29 37 72 40 96 6 36 18 54 75
111 47 46 70 78 74 100 3 18 5 43 3 57 -3 23 0 25 37 26 22 0 50 1 63 2 18 2
31 20 68 99 25 54 48 117 51 141 5 37 12 46 54 74 27 17 49 35 49 39 0 5 9 13
19 18 18 10 19 9 6 -39 -7 -27 -22 -61 -33 -75 -12 -15 -26 -52 -33 -83 -7
-31 -20 -73 -30 -93 -12 -24 -21 -77 -27 -160 -5 -68 -6 -146 -2 -174 4 -27
13 -63 20 -80 7 -16 17 -41 23 -55 6 -14 39 -52 73 -86 34 -33 82 -70 105 -81
24 -12 81 -33 125 -47 45 -14 102 -26 126 -26 25 0 78 7 117 16 65 15 73 15
96 0 15 -10 46 -16 80 -16 31 0 68 6 83 14 15 8 38 26 51 40 18 19 30 24 51
19 15 -3 37 0 49 6 16 9 31 9 59 1 32 -10 45 -8 92 10 47 19 67 21 145 15 l90
-6 93 45 c51 25 98 46 106 46 7 0 25 9 40 21 14 11 26 25 26 31 0 5 9 22 20
38 13 19 32 30 57 34 21 4 54 9 73 12 31 4 37 1 55 -27 14 -21 39 -38 80 -55
49 -19 78 -24 155 -24 56 0 111 6 135 14 24 9 57 12 82 9 30 -4 57 1 97 18 31
12 63 33 71 46 10 14 25 23 41 23 17 0 39 13 63 38 20 20 43 51 52 68 9 17 33
38 55 48 21 10 47 25 57 34 14 13 23 13 55 3 20 -7 44 -11 52 -9 10 2 15 -5
14 -22 -1 -14 -8 -53 -15 -88 l-13 -62 31 -43 c17 -23 55 -59 84 -80 49 -35
59 -38 106 -34 30 2 61 11 71 20 13 12 37 17 78 17 49 0 68 5 106 29 25 16 48
34 52 39 3 6 20 14 37 17 17 4 70 26 118 50 48 24 93 50 100 58 7 9 16 28 20
43 4 16 20 36 37 46 16 9 44 24 62 32 18 9 51 34 73 56 22 22 44 40 49 40 6 0
15 -9 22 -20 7 -11 20 -20 29 -20 12 0 19 13 23 45 4 24 12 47 17 51 5 3 16 1
23 -5 10 -8 10 -26 3 -78 -7 -46 -6 -90 2 -143 6 -41 11 -90 11 -108 0 -19 11
-49 25 -70 14 -20 25 -42 25 -49 0 -8 21 -45 47 -84 32 -46 56 -72 73 -76 14
-3 43 -15 65 -26 22 -10 47 -25 55 -32 8 -7 35 -15 59 -19 24 -4 57 -14 74
-22 22 -12 46 -15 86 -10 31 3 80 7 110 8 44 3 56 8 73 31 11 15 25 27 32 27
6 0 36 16 66 36 53 34 57 35 124 30 l69 -6 -7 40 -6 40 52 0 c40 0 61 7 97 30
26 16 78 39 116 51 54 17 91 22 163 21 63 -1 110 3 145 14 29 9 60 26 69 38
16 20 18 20 46 3 17 -9 41 -17 55 -17 15 0 40 14 63 35 33 32 42 35 94 35 40
0 61 5 71 16 11 13 25 15 75 9 40 -4 64 -3 69 4 3 6 19 11 34 11 15 0 36 -8
45 -19 9 -10 32 -21 50 -24 18 -3 54 -1 81 4 26 5 64 21 83 35 19 15 46 27 61
26 14 0 60 -7 101 -16 41 -8 107 -18 145 -21 39 -3 93 -11 120 -17 28 -5 60
-16 72 -24 12 -8 30 -14 38 -14 9 0 30 -13 46 -29 16 -16 29 -39 29 -51 0 -12
-10 -36 -22 -53 -12 -18 -35 -44 -50 -59 -15 -14 -28 -37 -28 -50 0 -12 9 -38
20 -56 11 -18 36 -40 55 -48 19 -8 40 -14 47 -14 8 0 38 18 68 39 30 22 70 54
88 72 17 18 32 43 32 54 0 12 6 29 13 38 6 10 25 21 42 25 20 6 35 20 50 50
12 23 33 54 47 69 14 16 33 43 43 62 12 24 15 46 11 75 -4 23 -17 56 -29 73
-12 18 -35 38 -52 44 -16 7 -39 20 -50 30 -14 12 -54 23 -120 33 -55 7 -129
15 -165 17 -36 1 -87 3 -115 3 -27 0 -97 -6 -155 -12 -58 -7 -148 -15 -200
-17 -52 -3 -121 -10 -153 -17 -32 -6 -82 -8 -112 -5 -39 4 -64 1 -85 -10 -17
-8 -63 -19 -103 -24 -39 -5 -121 -15 -182 -22 -60 -8 -123 -19 -138 -25 -16
-7 -47 -9 -70 -6 -23 3 -52 7 -64 10 -15 3 -23 12 -23 26 0 14 26 46 73 91 39
37 82 76 95 84 13 9 30 32 38 52 8 20 25 46 36 58 12 13 26 23 32 23 6 0 23
15 37 33 20 25 25 40 21 65 -4 28 1 38 32 68 28 27 36 43 36 70 0 19 -5 45
-11 57 -7 12 -23 34 -38 49 -24 25 -32 27 -106 27 -55 0 -86 -4 -99 -14 -11
-8 -27 -15 -36 -15 -10 0 -31 -12 -47 -27 -17 -16 -41 -36 -54 -45 -13 -10
-30 -18 -39 -18 -9 0 -65 -51 -124 -112 -58 -62 -122 -129 -141 -148 -18 -19
-52 -60 -74 -90 -23 -30 -41 -59 -41 -64 0 -6 -12 -22 -27 -38 -14 -15 -32
-45 -40 -65 -7 -21 -13 -66 -13 -101 0 -34 5 -71 12 -82 10 -15 9 -23 -6 -39
-11 -12 -42 -32 -70 -46 -28 -14 -76 -43 -106 -66 l-55 -41 -138 6 c-119 4
-141 8 -164 25 -14 12 -33 21 -42 21 -10 0 -35 27 -59 63 -22 34 -44 71 -48
82 -4 11 -16 32 -26 46 -11 14 -26 52 -35 85 -9 32 -17 84 -19 114 -2 30 -6
79 -10 109 -6 47 -4 61 22 112 19 37 36 59 49 61 10 2 33 22 50 46 16 24 59
72 95 107 36 35 80 79 98 97 18 18 45 53 60 77 15 24 65 84 112 133 47 49 92
103 100 120 9 20 34 41 65 58 27 15 57 40 67 56 10 16 18 37 18 46 0 10 11 25
25 34 14 9 37 37 51 61 15 24 35 48 45 54 10 5 19 19 19 30 0 12 7 36 16 55 9
18 33 50 54 71 22 20 41 47 44 59 4 13 15 25 26 29 13 4 21 19 26 43 3 20 25
78 49 127 24 50 46 109 50 132 4 25 2 57 -5 77 -6 19 -22 41 -35 50 -13 9 -36
16 -49 16 -14 0 -45 -7 -68 -16 -24 -9 -52 -27 -63 -39 -11 -13 -42 -36 -68
-53 -27 -17 -79 -62 -117 -101 -38 -39 -73 -71 -79 -71 -6 0 -38 -28 -71 -62
-34 -35 -77 -91 -97 -126 -19 -35 -48 -73 -64 -84 -15 -11 -33 -34 -40 -50 -6
-16 -20 -33 -30 -38 -9 -6 -20 -23 -24 -40 -4 -19 -25 -46 -56 -72 -27 -22
-49 -47 -49 -53 0 -7 -17 -34 -37 -60 -21 -27 -55 -64 -77 -84 -21 -20 -46
-52 -56 -71 -10 -19 -30 -45 -44 -57 -14 -13 -26 -30 -26 -39 0 -9 -9 -27 -20
-41 -11 -14 -20 -32 -20 -39 0 -8 -16 -32 -36 -54 -25 -27 -38 -52 -41 -82 -4
-23 -20 -61 -37 -86 -17 -24 -34 -49 -38 -56 -3 -6 -21 -42 -40 -79 -18 -38
-42 -74 -53 -80 -11 -5 -26 -18 -32 -27 -7 -10 -24 -21 -37 -24 -14 -3 -33
-19 -42 -36 -10 -16 -31 -34 -46 -41 -16 -6 -39 -25 -53 -40 -13 -16 -54 -45
-92 -64 -37 -20 -74 -42 -83 -49 -8 -7 -35 -24 -60 -38 -25 -14 -60 -29 -77
-33 -18 -3 -33 -11 -33 -16 0 -5 -11 -14 -25 -19 -14 -5 -38 -18 -53 -29 -19
-14 -47 -21 -96 -23 -64 -3 -70 -1 -89 24 -17 23 -21 45 -24 138 -2 68 -9 125
-18 147 -15 35 -16 35 -63 29 -26 -3 -63 -9 -82 -12 -19 -4 -47 -17 -62 -29
-15 -12 -42 -25 -62 -29 -19 -4 -47 -13 -62 -21 -15 -7 -30 -18 -33 -23 -3 -6
-30 -26 -60 -46 -30 -20 -71 -41 -93 -45 -22 -5 -47 -16 -56 -24 -9 -9 -30
-19 -47 -23 -16 -4 -46 -15 -65 -26 -19 -10 -43 -18 -52 -18 -10 0 -35 -9 -55
-20 -28 -15 -57 -20 -115 -20 -51 0 -81 5 -90 14 -8 7 -22 32 -33 56 l-19 42
42 35 c23 19 42 41 42 49 0 7 18 25 40 39 23 14 46 37 52 50 8 19 8 31 0 50
-6 13 -29 33 -51 44 -22 12 -42 25 -45 30 -3 5 5 33 19 63 19 40 25 70 25 123
0 46 -7 88 -20 123 -11 29 -20 62 -20 75 0 12 -18 41 -40 65 -21 23 -45 42
-52 42 -8 0 -25 14 -40 30 -18 21 -35 30 -57 30 -21 0 -44 -12 -79 -42 -27
-24 -64 -55 -83 -70 -19 -15 -53 -41 -77 -58 -24 -17 -48 -44 -54 -61 -5 -16
-13 -29 -17 -29 -4 0 -29 -16 -54 -36 -25 -20 -49 -44 -52 -54 -3 -9 -23 -25
-45 -35 -32 -15 -48 -33 -91 -107 -29 -49 -61 -94 -73 -100 -11 -6 -29 -20
-39 -32 -10 -12 -27 -41 -39 -66 -11 -25 -28 -54 -38 -65 -10 -11 -21 -38 -25
-60 -3 -22 -18 -52 -31 -66 -13 -14 -33 -50 -43 -80 -10 -30 -22 -92 -26 -139
-4 -46 -11 -92 -15 -101 -5 -8 -35 -22 -67 -29 -32 -7 -69 -13 -83 -11 -14 1
-75 5 -136 10 -66 5 -123 15 -142 25 -17 9 -45 16 -61 16 -22 0 -46 13 -85 48
-30 26 -73 59 -95 74 -26 18 -42 37 -46 55 -3 15 -10 46 -16 68 -6 22 -15 78
-21 125 -5 47 -7 120 -5 163 3 47 12 87 21 102 9 13 16 30 16 38 0 7 11 24 24
36 17 16 28 42 36 89 6 36 29 103 51 149 22 46 43 107 46 134 5 41 2 55 -16
79 -11 16 -21 34 -21 39 0 6 -9 15 -19 21 -11 5 -27 10 -36 10 -10 0 -34 -13
-55 -30 -24 -19 -49 -30 -69 -30 -24 0 -41 -9 -66 -37 -19 -21 -35 -42 -35
-48 0 -5 -27 -38 -60 -72 -33 -34 -60 -69 -60 -77 0 -8 -18 -29 -40 -46 -23
-18 -47 -47 -55 -66 -8 -19 -21 -34 -29 -34 -8 0 -21 -10 -27 -22 -7 -13 -28
-43 -48 -68 -20 -25 -41 -52 -46 -61 -6 -9 -19 -29 -30 -45 -10 -16 -36 -48
-57 -71 -25 -28 -40 -56 -44 -83 -4 -22 -12 -40 -19 -40 -7 0 -26 -17 -41 -37
-16 -21 -31 -42 -34 -48 -3 -5 -16 -27 -29 -47 -13 -21 -29 -38 -36 -38 -8 0
-16 4 -19 9 -4 5 8 21 25 35 20 17 32 38 36 63 3 21 19 61 34 88 15 28 37 75
48 105 10 30 23 71 26 90 4 19 24 64 45 100 20 36 46 81 57 100 11 19 33 65
49 102 17 40 35 69 46 71 14 4 18 15 18 45 0 22 11 64 25 93 14 30 32 65 39
79 8 14 19 36 24 50 6 14 13 34 15 45 3 11 24 70 46 130 23 61 47 124 55 140
8 17 21 46 29 65 8 19 18 50 22 69 4 18 16 52 26 75 10 22 19 52 19 66 0 14 7
36 16 48 8 12 22 54 30 93 8 40 20 81 26 93 6 12 18 30 28 41 10 11 23 45 30
75 7 30 26 98 42 150 17 52 37 107 44 122 8 15 14 40 14 56 0 16 9 58 20 93
12 35 30 82 40 105 11 22 20 54 20 70 0 16 8 41 18 54 9 14 22 54 29 90 7 36
17 94 24 130 6 36 17 80 25 98 8 18 14 47 14 65 0 18 5 48 11 67 5 19 16 75
24 124 8 48 20 96 28 105 8 9 18 41 21 73 4 32 3 73 -4 95 -5 21 -27 57 -48
80 -22 26 -49 45 -67 49 -23 4 -41 -2 -75 -25z m4507 -2037 c3 -9 -7 -34 -25
-60 -18 -24 -34 -55 -38 -69 -3 -14 -14 -31 -23 -38 -9 -6 -29 -32 -45 -57
-15 -25 -45 -73 -67 -107 -22 -35 -53 -70 -69 -78 -17 -9 -30 -20 -30 -25 0
-5 -16 -26 -35 -47 -19 -21 -43 -47 -54 -58 -10 -11 -47 -45 -81 -75 -34 -30
-73 -65 -87 -77 -13 -13 -30 -23 -38 -23 -8 0 -17 5 -20 10 -4 6 2 23 12 37
10 14 21 31 25 37 3 6 18 36 32 66 13 30 28 69 31 87 4 18 14 42 24 55 10 13
28 42 39 65 12 23 31 45 42 48 12 4 32 30 47 60 15 29 37 58 49 64 13 6 35 28
49 50 17 25 41 45 65 55 25 10 45 27 55 46 9 17 26 35 38 40 12 5 39 9 60 9
25 1 40 -4 44 -15z m-3019 -899 c2 -16 -2 -64 -8 -105 -7 -41 -21 -102 -31
-136 -10 -33 -32 -74 -47 -90 -16 -17 -39 -51 -51 -77 -13 -27 -39 -60 -59
-75 -19 -15 -59 -51 -89 -79 -30 -29 -60 -53 -68 -53 -7 0 -23 -12 -35 -27
-12 -16 -38 -38 -58 -50 -20 -13 -48 -23 -62 -23 -14 0 -32 4 -39 9 -10 6 -16
33 -19 75 -3 50 0 72 13 92 12 18 15 36 10 64 -4 26 -1 55 12 91 12 36 34 69
71 105 28 29 52 61 52 72 0 14 12 25 40 36 22 9 40 20 40 24 0 5 18 17 39 27
27 12 43 28 54 54 9 20 18 48 21 63 6 26 8 26 60 21 35 -4 56 -2 61 6 4 7 24
11 48 9 38 -3 42 -6 45 -33z"/>
<path d="M32180 6974 c-6 -14 -10 -27 -10 -30 0 -2 9 -13 20 -24 11 -11 20
-27 20 -36 0 -8 -16 -48 -36 -89 -25 -51 -39 -97 -45 -151 -6 -42 -14 -85 -19
-94 -5 -9 -10 -52 -10 -96 -2 -65 2 -89 23 -134 14 -31 43 -72 65 -92 22 -20
58 -41 79 -47 21 -6 88 -11 148 -11 78 0 118 4 139 15 15 8 49 15 75 15 34 0
57 8 90 30 24 17 49 30 56 30 7 0 30 13 51 28 22 16 50 34 63 41 12 7 59 16
104 21 79 8 82 9 118 51 25 30 45 43 65 45 16 1 63 16 104 33 41 17 79 31 83
31 5 0 20 -9 34 -20 14 -11 38 -20 54 -20 25 0 30 -5 39 -42 7 -22 17 -51 25
-62 7 -12 15 -33 19 -48 4 -20 14 -29 34 -33 15 -3 45 -15 67 -25 22 -10 63
-25 90 -33 28 -9 85 -21 127 -27 58 -10 88 -10 122 -1 25 6 73 11 106 11 48 0
69 5 93 22 17 12 53 25 81 30 28 4 76 14 106 21 30 6 71 24 90 39 19 14 55 31
79 38 23 6 49 9 57 6 7 -3 27 0 44 5 22 8 34 8 45 -1 8 -6 24 -33 37 -58 12
-26 42 -73 67 -105 24 -32 54 -60 66 -63 11 -3 53 -43 93 -89 45 -52 95 -98
131 -120 50 -30 67 -35 120 -35 34 0 78 -7 98 -15 19 -8 53 -15 73 -15 21 0
60 -5 87 -11 46 -11 51 -10 109 22 34 19 73 48 87 65 14 16 30 52 35 79 6 28
16 69 23 93 9 33 9 49 0 69 -12 25 -14 26 -83 20 -44 -4 -79 -2 -92 5 -12 6
-49 34 -83 62 -33 28 -94 72 -135 98 -40 25 -104 71 -142 102 -37 31 -73 56
-79 56 -6 0 -40 12 -76 26 -58 23 -75 26 -162 22 -70 -3 -103 -8 -116 -19 -10
-9 -33 -21 -52 -28 -19 -6 -48 -11 -65 -11 -17 0 -53 -12 -81 -26 -27 -15 -92
-38 -145 -51 -64 -17 -126 -26 -190 -27 -94 -1 -96 -1 -145 34 -40 29 -51 44
-58 75 -4 22 -16 75 -25 118 -16 75 -19 80 -62 108 -38 26 -51 30 -85 24 -22
-3 -60 -8 -85 -10 -25 -2 -76 -16 -115 -31 -38 -14 -98 -33 -132 -40 -34 -8
-115 -39 -178 -69 -64 -30 -125 -55 -135 -55 -10 0 -37 -9 -61 -20 -24 -11
-58 -20 -75 -20 -18 0 -58 -12 -90 -26 -33 -14 -72 -32 -87 -41 -19 -10 -48
-14 -85 -12 -31 2 -83 -1 -116 -5 -38 -6 -71 -5 -95 3 -20 6 -49 21 -64 33
-25 21 -29 32 -38 119 -5 55 -6 107 -1 120 5 13 6 61 2 107 -4 56 -12 88 -23
99 -9 9 -42 20 -74 24 -32 5 -74 11 -93 14 -19 4 -48 13 -63 20 -26 13 -28 12
-37 -11z"/>
<path d="M37444 6635 c-13 -20 -14 -31 -5 -56 6 -18 11 -42 11 -54 0 -12 -11
-31 -25 -43 -13 -12 -27 -33 -31 -47 -3 -14 -3 -36 0 -50 4 -15 30 -40 69 -67
46 -31 71 -42 97 -41 19 1 52 4 72 8 33 6 39 4 49 -18 6 -14 22 -30 36 -36 13
-6 32 -11 41 -11 9 0 34 16 55 35 33 30 37 39 37 82 0 41 -4 52 -30 75 -23 20
-30 35 -30 63 0 20 -5 45 -10 55 -6 11 -27 24 -47 29 -20 6 -55 8 -78 4 -39
-5 -46 -2 -86 34 -24 21 -57 44 -72 51 -15 7 -30 12 -32 12 -3 0 -12 -11 -21
-25z"/>
<path d="M20620 4875 c0 -8 9 -15 20 -15 11 0 20 7 20 15 0 8 -9 15 -20 15
-11 0 -20 -7 -20 -15z"/>
<path d="M5705 180 c-27 -10 -54 -26 -60 -35 -8 -12 -5 -21 14 -36 16 -13 39
-19 75 -19 30 0 61 6 74 16 14 9 22 26 22 43 0 15 -5 32 -12 39 -7 7 -23 12
-37 11 -15 0 -48 -9 -76 -19z"/>
<path d="M5523 154 c-13 -9 -23 -27 -23 -40 0 -13 9 -28 19 -34 11 -5 31 -10
45 -10 19 0 27 7 32 24 3 13 4 35 2 47 -2 17 -10 25 -28 26 -14 1 -35 -5 -47
-13z"/>
</g>
</svg>
